<svg width="61" height="20" viewBox="0 0 61 20" fill="none" xmlns="http://www.w3.org/2000/svg">
<path d="M12.6719 5.52004V18.816H9.28787V17.136C8.85587 17.712 8.28787 18.168 7.58387 18.504C6.89587 18.824 6.14387 18.984 5.32787 18.984C4.28787 18.984 3.36787 18.768 2.56787 18.336C1.76787 17.888 1.13587 17.24 0.671867 16.392C0.223867 15.528 -0.00013274 14.504 -0.00013274 13.32V5.52004H3.35987V12.84C3.35987 13.896 3.62387 14.712 4.15187 15.288C4.67987 15.848 5.39987 16.128 6.31187 16.128C7.23987 16.128 7.96787 15.848 8.49587 15.288C9.02387 14.712 9.28787 13.896 9.28787 12.84V5.52004H12.6719ZM23.3551 5.32804C24.9391 5.32804 26.2191 5.83204 27.1951 6.84004C28.1711 7.83204 28.6591 9.22404 28.6591 11.016V18.816H25.2991V11.472C25.2991 10.416 25.0351 9.60804 24.5071 9.04804C23.9791 8.47204 23.2591 8.18404 22.3471 8.18404C21.4191 8.18404 20.6831 8.47204 20.1391 9.04804C19.6111 9.60804 19.3471 10.416 19.3471 11.472V18.816H15.9871V5.52004H19.3471V7.17604C19.7951 6.60004 20.3631 6.15204 21.0511 5.83204C21.7551 5.49604 22.5231 5.32804 23.3551 5.32804ZM33.5582 3.93604C32.9662 3.93604 32.4702 3.75204 32.0702 3.38404C31.6862 3.00004 31.4942 2.52804 31.4942 1.96804C31.4942 1.40804 31.6862 0.944039 32.0702 0.576039C32.4702 0.192039 32.9662 3.91006e-05 33.5582 3.91006e-05C34.1502 3.91006e-05 34.6382 0.192039 35.0222 0.576039C35.4222 0.944039 35.6222 1.40804 35.6222 1.96804C35.6222 2.52804 35.4222 3.00004 35.0222 3.38404C34.6382 3.75204 34.1502 3.93604 33.5582 3.93604ZM35.2142 5.52004V18.816H31.8542V5.52004H35.2142ZM42.4459 8.28004V14.712C42.4459 15.16 42.5499 15.488 42.7579 15.696C42.9819 15.888 43.3499 15.984 43.8619 15.984H45.4219V18.816H43.3099C40.4779 18.816 39.0619 17.44 39.0619 14.688V8.28004H37.4779V5.52004H39.0619V2.23204H42.4459V5.52004H45.4219V8.28004H42.4459ZM60.1986 11.88C60.1986 12.36 60.1666 12.792 60.1026 13.176H50.3826C50.4626 14.136 50.7986 14.888 51.3906 15.432C51.9826 15.976 52.7106 16.248 53.5746 16.248C54.8226 16.248 55.7106 15.712 56.2386 14.64H59.8626C59.4786 15.92 58.7426 16.976 57.6546 17.808C56.5666 18.624 55.2306 19.032 53.6466 19.032C52.3666 19.032 51.2146 18.752 50.1906 18.192C49.1826 17.616 48.3906 16.808 47.8146 15.768C47.2546 14.728 46.9746 13.528 46.9746 12.168C46.9746 10.792 47.2546 9.58404 47.8146 8.54404C48.3746 7.50404 49.1586 6.70404 50.1666 6.14404C51.1746 5.58404 52.3346 5.30404 53.6466 5.30404C54.9106 5.30404 56.0386 5.57604 57.0306 6.12004C58.0386 6.66404 58.8146 7.44004 59.3586 8.44804C59.9186 9.44004 60.1986 10.584 60.1986 11.88ZM56.7186 10.92C56.7026 10.056 56.3906 9.36804 55.7826 8.85604C55.1746 8.32804 54.4306 8.06404 53.5506 8.06404C52.7186 8.06404 52.0146 8.32004 51.4386 8.83204C50.8786 9.32804 50.5346 10.024 50.4066 10.92H56.7186Z" fill="#FF0000"/>
</svg>
